<svg id="icons" enable-background="new 0 0 64 64" height="512" viewBox="0 0 64 64" width="512" xmlns="http://www.w3.org/2000/svg"><path d="m52.005 27.99c1.1 0 2 .899 2 2 0 1.109-.9 2-2 2h-.01c-1.11-.01-1.99-.891-1.99-2 0-1.1.89-2 2-2z" fill="#656d78"/><g fill="#5d9cec"><circle cx="51.995" cy="15" r="9"/><path d="m50.005 56h4v3h-4z"/><path d="m50.005 56v3h-4v-.04-2.96z"/><path d="m54.005 56h3.99v3h-3.99z"/></g><path d="m57.005 46c1.1 0 2 .89 2 2 0 1.1-.9 2-2 2-1.11 0-2-.9-2-2 0-1.11.89-2 2-2z" fill="#656d78"/><path d="m47.005 46c1.1 0 2 .89 2 2 0 1.1-.9 2-2 2-1.11 0-2-.9-2-2 0-1.11.89-2 2-2z" fill="#656d78"/><path d="m46.005 58.96v.04h-5.01v-11c0-6.08 4.93-11 11-11 6.079 0 11 4.92 11 11v11h-5v-3h-3.99-4-4zm13-10.96c0-1.11-.9-2-2-2-1.11 0-2 .89-2 2 0 1.1.89 2 2 2 1.099 0 2-.9 2-2zm-10 0c0-1.11-.9-2-2-2-1.11 0-2 .89-2 2 0 1.1.89 2 2 2 1.099 0 2-.9 2-2z" fill="#e6e9ed"/><path d="m3.995 35 2 2v4h25.989v-12h-25.989v4zm1.94 17h26l.05-7h-26zm28.049-33-2-2v-4h-25.989v12h25.989v-4zm3-10v50h-35.979v-50z" fill="#e6e9ed"/><path d="m36.984 7v2h-35.979v-2c0-1.11.899-2 2-2h31.979c1.101 0 2 .89 2 2z" fill="#ccd1d9"/><path d="m33.984 19-2 2v4h-25.989v-12h25.989v4z" fill="#fff"/><path d="m31.984 29v12h-25.989v-4l-2-2 2-2v-4z" fill="#fff"/><path d="m31.984 45-.049 7h-26l.049-7z" fill="#fff"/><path d="m1.006 7.998c-.553 0-1-.447-1-1 0-1.654 1.346-3 3-3 .553 0 1 .447 1 1s-.447 1-1 1c-.552 0-1 .448-1 1 0 .553-.447 1-1 1z"/><path d="m36.98 7.998c-.553 0-1-.447-1-1 0-.552-.448-1-1-1-.553 0-1-.447-1-1s.447-1 1-1c1.654 0 3 1.346 3 3 0 .553-.447 1-1 1z"/><path d="m34.98 5.998h-31.974c-.553 0-1-.447-1-1s.447-1 1-1h31.974c.553 0 1 .447 1 1s-.447 1-1 1z"/><path d="m4.036 7.998c-.553 0-1.005-.447-1.005-1s.442-1 .994-1h.011c.552 0 1 .447 1 1s-.448 1-1 1z"/><path d="m7.034 7.998c-.553 0-1.005-.447-1.005-1s.442-1 .994-1h.011c.552 0 1 .447 1 1s-.448 1-1 1z"/><path d="m10.038 7.998c-.553 0-1.005-.447-1.005-1s.442-1 .994-1h.011c.552 0 1 .447 1 1s-.448 1-1 1z"/><path d="m1.006 60.002c-.553 0-1-.447-1-1v-52.004c0-.553.447-1 1-1s1 .447 1 1v52.004c0 .553-.447 1-1 1z"/><path d="m36.98 60.002c-.553 0-1-.447-1-1v-52.004c0-.553.447-1 1-1s1 .447 1 1v52.004c0 .553-.447 1-1 1z"/><path d="m36.98 9.998h-35.974c-.553 0-1-.447-1-1s.447-1 1-1h35.974c.553 0 1 .447 1 1s-.447 1-1 1z"/><path d="m36.98 60.002h-35.974c-.553 0-1-.447-1-1s.447-1 1-1h35.974c.553 0 1 .447 1 1s-.447 1-1 1z"/><path d="m31.98 41.996h-25.99c-.553 0-1-.447-1-1v-3.579l-1.709-1.707c-.188-.188-.293-.441-.293-.707s.105-.52.293-.707l1.709-1.708v-3.588c0-.553.447-1 1-1h25.99c.553 0 1 .447 1 1v11.996c0 .553-.447 1-1 1zm-24.99-2h23.99v-9.996h-23.99v3.002c0 .266-.105.52-.293.707l-1.294 1.294 1.294 1.293c.188.188.293.441.293.707z"/><path d="m27.98 34.498h-17.99c-.553 0-1-.447-1-1s.447-1 1-1h17.99c.553 0 1 .447 1 1s-.447 1-1 1z"/><path d="m18.984 37.498h-8.994c-.553 0-1-.447-1-1s.447-1 1-1h8.994c.553 0 1 .447 1 1s-.447 1-1 1z"/><path d="m31.979 25.998h-25.989c-.553 0-1-.447-1-1v-11.996c0-.553.447-1 1-1h25.988c.553 0 1 .447 1 1v3.588l1.709 1.708c.188.188.293.441.293.707s-.105.52-.293.707l-1.709 1.707v3.579c.001.553-.447 1-.999 1zm-24.989-2h23.988v-2.993c0-.266.105-.52.293-.707l1.294-1.293-1.294-1.294c-.188-.188-.293-.441-.293-.707v-3.002h-23.988z"/><path d="m27.98 18.5h-17.99c-.553 0-1-.447-1-1s.447-1 1-1h17.99c.553 0 1 .447 1 1s-.447 1-1 1z"/><path d="m18.984 21.5h-8.994c-.553 0-1-.447-1-1s.447-1 1-1h8.994c.553 0 1 .447 1 1s-.447 1-1 1z"/><path d="m31.938 52.998h-26c-.267 0-.521-.106-.709-.295s-.293-.444-.291-.711l.041-7.001c.003-.55.45-.994 1-.994h26.001c.267 0 .521.106.709.295s.293.445.291.711l-.043 7.001c-.002.55-.45.994-.999.994zm-24.995-2h24l.031-5.001h-24.001z"/><path d="m16.973 56.003h-10.993c-.553 0-1-.447-1-1s.447-1 1-1h10.992c.553 0 1 .447 1 1s-.447 1-.999 1z"/><path d="m32.005 56.003c-.553 0-1.005-.447-1.005-1s.442-1 .994-1h.011c.552 0 1 .447 1 1s-.448 1-1 1z"/><path d="m29.005 56.003c-.553 0-1.005-.447-1.005-1s.442-1 .994-1h.011c.552 0 1 .447 1 1s-.448 1-1 1z"/><path d="m62.994 48.998c-.553 0-1-.447-1-1 0-5.514-4.486-10-10-10s-10 4.486-10 10c0 .553-.447 1-1 1s-1-.447-1-1c0-6.617 5.383-12 12-12s12 5.383 12 12c0 .553-.447 1-1 1z"/><path d="m62.992 59.998c-.553 0-1-.448-1-1l.002-11c0-.553.448-1 1-1 .553 0 1 .448 1 1l-.002 11c0 .553-.448 1-1 1z"/><path d="m40.994 59.998c-.553 0-1-.447-1-1v-11c0-.553.447-1 1-1s1 .447 1 1v11c0 .553-.447 1-1 1z"/><path d="m51.994 37.998c-.553 0-1-.447-1-1v-5.004c0-.553.447-1 1-1s1 .447 1 1v5.004c0 .553-.447 1-1 1z"/><path d="m51.998 32.994c-1.654 0-3-1.346-3-3s1.346-3 3-3 3 1.346 3 3-1.346 3-3 3zm0-4c-.552 0-1 .448-1 1s.448 1 1 1 1-.448 1-1-.448-1-1-1z"/><path d="m56.998 50.997c-1.654 0-3-1.346-3-3s1.346-3 3-3 3 1.346 3 3-1.346 3-3 3zm0-4c-.552 0-1 .448-1 1s.448 1 1 1 1-.448 1-1-.448-1-1-1z"/><path d="m46.998 50.997c-1.654 0-3-1.346-3-3s1.346-3 3-3 3 1.346 3 3-1.346 3-3 3zm0-4c-.552 0-1 .448-1 1s.448 1 1 1 1-.448 1-1-.448-1-1-1z"/><path d="m57.996 59.998c-.553 0-1-.447-1-1v-3.002c0-.553.447-1 1-1s1 .447 1 1v3.002c0 .553-.447 1-1 1z"/><path d="m57.996 56.996h-11.996c-.553 0-1-.447-1-1s.447-1 1-1h11.996c.553 0 1 .447 1 1s-.447 1-1 1z"/><path d="m46 59.955c-.553 0-1-.447-1-1v-2.959c0-.553.447-1 1-1s1 .447 1 1v2.959c0 .553-.447 1-1 1z"/><path d="m49.998 59.998c-.553 0-1-.447-1-1v-3.002c0-.553.447-1 1-1s1 .447 1 1v3.002c0 .553-.447 1-1 1z"/><path d="m53.998 59.998c-.553 0-1-.447-1-1v-3.002c0-.553.447-1 1-1s1 .447 1 1v3.002c0 .553-.447 1-1 1z"/><path d="m62.992 59.998h-21.998c-.553 0-1-.447-1-1s.447-1 1-1h21.998c.553 0 1 .447 1 1s-.447 1-1 1z"/><path d="m56.99 16.001c-.256 0-.512-.098-.707-.293l-1.998-2c-.391-.391-.391-1.024 0-1.414.391-.391 1.023-.391 1.414 0l1.998 2c.391.391.391 1.024 0 1.414-.195.195-.451.293-.707.293z"/><path d="m54.992 17.997c-.256 0-.512-.098-.707-.293-.391-.391-.391-1.023 0-1.414l1.998-1.999c.391-.391 1.023-.391 1.414 0s.391 1.023 0 1.414l-1.998 1.999c-.195.195-.451.293-.707.293z"/><path d="m46.994 16.002c-.256 0-.512-.098-.707-.293-.391-.391-.391-1.023 0-1.414l2-2.001c.391-.391 1.023-.391 1.414 0s.391 1.023 0 1.414l-2 2.001c-.195.195-.451.293-.707.293z"/><path d="m48.994 17.999c-.256 0-.512-.098-.707-.293l-2-2c-.391-.391-.391-1.023 0-1.414s1.023-.391 1.414 0l2 2c.391.391.391 1.023 0 1.414-.195.195-.451.293-.707.293z"/><path d="m50.995 20.003c-.08 0-.162-.01-.243-.03-.536-.134-.862-.676-.729-1.212l1.999-8.002c.133-.535.675-.864 1.212-.728.536.134.862.676.729 1.212l-1.999 8.002c-.113.454-.521.758-.969.758z"/><path d="m51.994 25c-5.514 0-10-4.486-10-10s4.486-10 10-10 10 4.486 10 10-4.486 10-10 10zm0-18c-4.411 0-8 3.589-8 8s3.589 8 8 8 8-3.589 8-8-3.589-8-8-8z"/></svg>