<svg id="Layer_1" enable-background="new 0 0 512 512" height="512" viewBox="0 0 512 512" width="512" xmlns="http://www.w3.org/2000/svg"><path d="m316.258 354.86h-60.258-60.257c0 41.301-15.244 81.148-42.809 111.904l-6.934 7.736h220l-6.934-7.736c-27.565-30.756-42.808-70.603-42.808-111.904z" fill="#897bad"/><path d="m235.743 354.86h-40c0 41.301-15.244 81.148-42.809 111.903l-6.934 7.737h40l6.934-7.737c27.565-30.755 42.809-70.602 42.809-111.903z" fill="#806e9c"/><path d="m256 354.86h-60.257c0 20.983-3.943 41.588-11.429 60.82h143.373c-7.486-19.231-11.429-39.836-11.429-60.82z" fill="#806e9c"/><path d="m454.5 375.68h-397c-27.614 0-50-22.386-50-50v-268.18c0-27.614 22.386-50 50-50h397c27.614 0 50 22.386 50 50v268.18c0 27.614-22.386 50-50 50z" fill="#988fc4"/><path d="m47.5 325.68v-268.18c0-27.614 22.386-50 50-50h-40c-27.614 0-50 22.386-50 50v268.18c0 27.614 22.386 50 50 50h40c-27.614 0-50-22.386-50-50z" fill="#897bad"/><path d="m47.5 305.68v-248.18c0-5.523 4.477-10 10-10h397c5.523 0 10 4.477 10 10v248.18z" fill="#e3fbff"/><path d="m97.5 47.5h-40c-5.523 0-10 4.477-10 10v248.18h40v-248.18c0-5.523 4.477-10 10-10z" fill="#b5efff"/><path d="m464.5 190.45-91.924-142.95h-62.827l154.751 240.651z" fill="#fff"/><path d="m451.009 304.483-165.253-256.983h-40.756l165.253 256.983z" fill="#fff"/><path d="m361.667 504.5h-211.334c-11.046 0-20-8.954-20-20 0-11.046 8.954-20 20-20h211.333c11.046 0 20 8.954 20 20 .001 11.046-8.954 20-19.999 20z" fill="#988fc4"/><path d="m170.333 484.5c0-11.046 8.954-20 20-20h-40c-11.046 0-20 8.954-20 20s8.954 20 20 20h40c-11.045 0-20-8.954-20-20z" fill="#897bad"/><path d="m454.5 335.68h-397c-5.523 0-10-4.477-10-10v-50h417v50c0 5.523-4.477 10-10 10z" fill="#897bad"/><path d="m87.5 325.68v-50h-40v50c0 5.523 4.477 10 10 10h40c-5.523 0-10-4.477-10-10z" fill="#806e9c"/><ellipse cx="176.443" cy="112.003" fill="#ffa1ac" rx="29.355" ry="23.377"/><ellipse cx="335.557" cy="112.003" fill="#ffa1ac" rx="29.355" ry="23.377"/><path d="m193.551 97c-4.142 0-7.5-3.358-7.5-7.5v-12c0-4.142 3.358-7.5 7.5-7.5s7.5 3.358 7.5 7.5v12c0 4.142-3.358 7.5-7.5 7.5z"/><path d="m318.449 97c-4.142 0-7.5-3.358-7.5-7.5v-12c0-4.142 3.358-7.5 7.5-7.5s7.5 3.358 7.5 7.5v12c0 4.142-3.358 7.5-7.5 7.5z"/><path d="m256 104.144c-8.478 0-16.54-3.671-22.119-10.073-2.721-3.123-2.396-7.86.727-10.582 3.123-2.721 7.86-2.396 10.582.727 2.729 3.132 6.669 4.929 10.81 4.929s8.081-1.796 10.81-4.929c2.721-3.123 7.458-3.448 10.582-.727 3.123 2.722 3.448 7.459.727 10.582-5.579 6.401-13.641 10.073-22.119 10.073z"/><path d="m454.5 0h-397c-31.706 0-57.5 25.794-57.5 57.5v82.326c0 4.142 3.358 7.5 7.5 7.5s7.5-3.358 7.5-7.5v-82.326c0-23.435 19.065-42.5 42.5-42.5h397c23.435 0 42.5 19.065 42.5 42.5v268.18c0 23.435-19.065 42.5-42.5 42.5h-397c-23.435 0-42.5-19.065-42.5-42.5v-157.854c0-4.142-3.358-7.5-7.5-7.5s-7.5 3.358-7.5 7.5v157.854c0 31.706 25.794 57.5 57.5 57.5h128.184c-4.87 27.185-16.609 52.494-34.28 73.82h-1.07c-15.164 0-27.5 12.336-27.5 27.5s12.336 27.5 27.5 27.5h211.333c15.164 0 27.5-12.336 27.5-27.5s-12.336-27.5-27.5-27.5h-1.07c-17.672-21.326-29.41-46.635-34.28-73.82h128.183c31.706 0 57.5-25.794 57.5-57.5v-268.18c0-31.706-25.794-57.5-57.5-57.5zm-80.333 484.5c0 6.893-5.607 12.5-12.5 12.5h-211.334c-6.893 0-12.5-5.607-12.5-12.5s5.607-12.5 12.5-12.5h211.333c6.893 0 12.501 5.607 12.501 12.5zm-32.543-27.5h-171.248c15.749-21.909 26.182-47.071 30.552-73.82h110.144c4.371 26.749 14.804 51.911 30.552 73.82z"/><path d="m454.5 343.18c9.649 0 17.5-7.851 17.5-17.5v-50-218.18c0-9.649-7.851-17.5-17.5-17.5h-397c-9.649 0-17.5 7.851-17.5 17.5v218.18 50c0 9.649 7.851 17.5 17.5 17.5zm-399.5-17.5v-42.5h249.449c4.142 0 7.5-3.358 7.5-7.5s-3.358-7.5-7.5-7.5h-249.449v-210.68c0-1.378 1.122-2.5 2.5-2.5h397c1.378 0 2.5 1.122 2.5 2.5v210.68h-124.551c-4.142 0-7.5 3.358-7.5 7.5s3.358 7.5 7.5 7.5h124.551v42.5c0 1.378-1.122 2.5-2.5 2.5h-397c-1.378 0-2.5-1.122-2.5-2.5z"/></svg>