<?xml version="1.0" encoding="iso-8859-1"?>
<!-- Generator: Adobe Illustrator 19.0.0, SVG Export Plug-In . SVG Version: 6.00 Build 0)  -->
<svg version="1.1" id="Capa_1" xmlns="http://www.w3.org/2000/svg" xmlns:xlink="http://www.w3.org/1999/xlink" x="0px" y="0px"
	 viewBox="0 0 512 512" style="enable-background:new 0 0 512 512;" xml:space="preserve">
<path style="fill:#4AA7ED;" d="M396.034,420.5C454.557,420.5,502,373.057,502,314.534c0-55.452-42.596-100.948-96.851-105.572
	c-20.236-67.93-83.161-117.465-157.665-117.465c-75.631,0-139.332,51.043-158.556,120.557C43.503,224.008,10,265.356,10,314.535
	c0,58.523,47.443,105.966,105.966,105.966h280.068V420.5z"/>
<path d="M256,189.632c-5.523,0-10-4.477-10-10v-0.131c0-5.523,4.477-10,10-10c5.523,0,10,4.477,10,10v0.131
	C266,185.156,261.523,189.632,256,189.632z"/>
<path d="M100.024,339.001c-3.687,0-7.233-2.047-8.976-5.578l-0.217-0.439c-2.443-4.953-0.409-10.949,4.544-13.393
	c4.951-2.443,10.948-0.41,13.393,4.544l0.217,0.439c2.443,4.953,0.409,10.949-4.544,13.393
	C103.019,338.669,101.51,339.001,100.024,339.001z"/>
<path d="M302.929,271.426l-36.928,36.928v-96.37c0-5.523-4.477-10-10-10s-10,4.477-10,10v96.372l-36.93-36.93
	c-3.905-3.905-10.237-3.905-14.143,0c-3.905,3.905-3.905,10.237,0,14.143l54,54c1.953,1.953,4.512,2.929,7.071,2.929
	s5.119-0.976,7.071-2.929l54-54c3.905-3.905,3.905-10.237,0-14.143C313.166,267.52,306.834,267.52,302.929,271.426z"/>
<path d="M481.269,235.906c-18.164-19.677-42.303-32.354-68.561-36.138c-11.166-32.724-32.29-62.002-60.004-82.984
	c-30.493-23.084-66.877-35.285-105.22-35.285c-76.32,0-144.027,50.08-166.603,122.48C32.977,219.139,0,263.804,0,314.535
	c0,63.944,52.022,115.966,115.966,115.966h280.068c63.944,0,115.966-52.022,115.966-115.966
	C512,285.299,501.086,257.374,481.269,235.906z M396.034,410.5H115.966C63.05,410.5,20,367.45,20,314.535
	c0-37.746,22.066-71.42,55.323-86.952c-3.968,24.209-2.843,49.157,3.402,72.921c1.18,4.49,5.231,7.461,9.665,7.461
	c0.841,0,1.697-0.107,2.548-0.331c5.341-1.404,8.534-6.872,7.13-12.213c-6.569-24.997-6.769-51.478-0.578-76.575
	c0.345-1.396,0.695-2.751,1.075-4.125c18.437-66.664,79.674-113.223,148.918-113.223c67.838,0,128.731,45.365,148.082,110.32
	c1.174,3.94,4.639,6.76,8.735,7.109c49.177,4.191,87.7,46.187,87.7,95.608C492,367.45,448.95,410.5,396.034,410.5z"/>
<g>
</g>
<g>
</g>
<g>
</g>
<g>
</g>
<g>
</g>
<g>
</g>
<g>
</g>
<g>
</g>
<g>
</g>
<g>
</g>
<g>
</g>
<g>
</g>
<g>
</g>
<g>
</g>
<g>
</g>
</svg>
